Coordinates
version=1
nRows=16
nColumns=22
inDegrees=yes

Units are S.I. units (second, meters, Newtons, ...)
If the header above contains a line with 'inDegrees', this indicates whether rotational values are in degrees (yes) or radians (no).

endheader
time	pelvis_tilt	pelvis_list	pelvis_rotation	pelvis_tx	pelvis_ty	pelvis_tz	hip_flexion_r	hip_adduction_r	hip_rotation_r	knee_angle_r	ankle_angle_r	subtalar_angle_r	hip_flexion_l	hip_adduction_l	hip_rotation_l	knee_angle_l	ankle_angle_l	subtalar_angle_l	lumbar_extension	lumbar_bending	lumbar_rotation
      2.42000000	      1.54611747	     -0.83792869	     -4.38948035	     -0.60932193	      0.92820016	      0.04308722	     25.62964282	      0.90937227	     -2.01604413	    -44.83007046	     -4.32283078	      2.49059394	     -4.53335211	      3.11689085	     -8.29807177	    -13.90103083	     11.63179661	     -3.13215054	    -10.74371200	     -3.98623568	     -6.58515719
      2.43000000	      1.64948018	     -0.95870261	     -3.84539283	     -0.59955645	      0.92734543	      0.04258435	     25.39259789	      0.93338698	     -2.88546048	    -41.17637997	     -4.22472912	      2.56074128	     -5.45722463	      3.01969929	     -7.84201697	    -13.59792779	     11.99522859	     -3.17735947	    -10.82350311	     -3.83183983	     -7.06041109
      2.44000000	      1.73435224	     -1.04257330	     -3.30247358	     -0.58965282	      0.92624767	      0.04211686	     25.07423641	      0.94876091	     -3.78537089	    -37.36457612	     -4.21515253	      2.72720810	     -6.34153619	      2.94162575	     -7.41791602	    -13.34504668	     12.38347116	     -3.23085187	    -10.86749125	     -3.71490575	     -7.51462553
      2.45000000	      1.79365874	     -1.07262380	     -2.76479377	     -0.57963801	      0.92489049	      0.04171708	     24.70272674	      0.95643722	     -4.66692816	    -33.44263260	     -4.28498815	      2.98732998	     -7.16808586	      2.89915038	     -7.01492577	    -13.16376547	     12.79324686	     -3.29656979	    -10.87195368	     -3.66186771	     -7.95618489
      2.46000000	      1.82597207	     -1.04462281	     -2.23199872	     -0.56951890	      0.92327017	      0.04139528	     24.30271388	      0.95304842	     -5.51229355	    -29.47360594	     -4.40330490	      3.33001275	     -7.93383875	      2.89597516	     -6.63470835	    -13.06117343	     13.22115355	     -3.37331932	    -10.83770666	     -3.68040975	     -8.37966916
      2.47000000	      1.83497916	     -0.96224415	     -1.71719605	     -0.55928883	      0.92140087	      0.04115935	     23.89575991	      0.94254803	     -6.29389189	    -25.53176213	     -4.53703442	      3.74150667	     -8.65578593	      2.93300080	     -6.28728930	    -13.01663245	     13.65385600	     -3.45531662	    -10.77096963	     -3.76403572	     -8.77800071
      2.48000000	      1.81029139	     -0.81644989	     -1.21160046	     -0.54897518	      0.91928244	      0.04101397	     23.52472006	      0.90657112	     -6.98536505	    -21.70713507	     -4.66957108	      4.16354696	     -9.31131638	      3.01374387	     -5.99800734	    -13.05033075	     14.10562114	     -3.53020896	    -10.66538989	     -3.92573065	     -9.18277884
      2.49000000	      1.79344335	     -0.62464544	     -0.75786102	     -0.53853386	      0.91701378	      0.04099379	     23.15319651	      0.86995062	     -7.49175776	    -18.05875218	     -4.71675170	      4.64873213	     -9.99512907	      3.13849855	     -5.72844345	    -13.07496001	     14.50766745	     -3.59249454	    -10.56355948	     -4.15021845	     -9.50117743
      2.50000000	      1.75923580	     -0.38930564	     -0.29971002	     -0.52806430	      0.91458611	      0.04102743	     22.84473808	      0.79238933	     -7.89392217	    -14.69710529	     -4.71723171	      5.07072969	    -10.61424798	      3.28354558	     -5.50576137	    -13.20451714	     14.91450736	     -3.62869511	    -10.45848248	     -4.42487110	     -9.83290957
      2.51000000	      1.72891127	     -0.12424887	      0.12673412	     -0.51752627	      0.91208074	      0.04114576	     22.58730580	      0.68921423	     -8.14142254	    -11.69657207	     -4.64071863	      5.46544428	    -11.24236937	      3.44981425	     -5.29216079	    -13.34463708	     15.29627349	     -3.63137296	    -10.36995962	     -4.73532017	    -10.12475665
      2.52000000	      1.71521203	      0.14754055	      0.54034747	     -0.50693071	      0.90956552	      0.04128610	     22.38121096	      0.56007176	     -8.28298910	     -9.14365258	     -4.47487475	      5.82217822	    -11.87263590	      3.60871889	     -5.08795392	    -13.53236045	     15.64043710	     -3.59639668	    -10.31736910	     -5.04384619	    -10.39751300
      2.53000000	      1.72287617	      0.40449731	      0.93814970	     -0.49628273	      0.90710372	      0.04145314	     22.24036013	      0.41913755	     -8.35589465	     -7.12598110	     -4.24790044	      6.13650130	    -12.51518295	      3.73787308	     -4.87753971	    -13.75214345	     15.95331513	     -3.52210997	    -10.30834950	     -5.32495005	    -10.65870684
      2.54000000	      1.75456746	      0.62241043	      1.31820899	     -0.48555275	      0.90474956	      0.04163843	     22.17640881	      0.28553292	     -8.39901093	     -5.71696126	     -3.97406250	      6.38968959	    -13.17044128	      3.81177133	     -4.65813587	    -14.01077157	     16.22023558	     -3.41466539	    -10.33991495	     -5.54796332	    -10.90044507
      2.55000000	      1.79486176	      0.79248841	      1.66704040	     -0.47475502	      0.90251267	      0.04182904	     22.22628282	      0.16770125	     -8.40806213	     -4.97881049	     -3.67880079	      6.52367324	    -13.81431560	      3.82780560	     -4.43866471	    -14.31576707	     16.46367576	     -3.29738740	    -10.39466128	     -5.69646385	    -11.12394558
      2.56000000	      1.88469344	      0.85773357	      1.98759904	     -0.46379763	      0.90051362	      0.04202650	     22.32033401	      0.12623133	     -8.42484444	     -4.88090395	     -3.39127841	      6.55626482	    -14.49213738	      3.72394498	     -4.21430597	    -14.66672336	     16.57234474	     -3.14792593	    -10.50404527	     -5.70071109	    -11.30998504
      2.57000000	      1.98931551	      0.83469487	      2.27181389	     -0.45267457	      0.89871576	      0.04222938	     22.49190289	      0.14883518	     -8.40737547	     -5.39255293	     -3.16788551	      6.37145188	    -15.15995276	      3.52505971	     -3.98563917	    -15.07383079	     16.60396546	     -2.97251883	    -10.62299920	     -5.57989638	    -11.47008044
